erDiagram
answer_choices ||--|| questions : question_id
calendar_events ||--|| offers : offer_id
calendar_events ||--|| users : user_id
characteristics ||--|| users : user_id
connections ||--|| clients : client_id
connections ||--|| services : service_id
connections ||--|| users : user_id
consent_actions ||--|| consents : consent_id
consents ||--|| users : user_id
content_entries ||--|| content_entries : parent_id
creations ||--|| jobs : job_id
facts ||--|| tags : tag_id
facts ||--|| users : user_id
feedback_components ||--|| content_entries : content_entrie_id
feedback_components ||--|| questions : question_id
feedbacks ||--|| answer_choices : answer_choice_id
feedbacks ||--|| feedback_components : feedback_component_id
feedbacks ||--|| users : user_id
offer_progresses ||--|| offers : offer_id
offer_progresses ||--|| users : user_id
offers ||--|| content_entries : content_entrie_id
offers ||--|| offers : previous_version_id
offers ||--|| rules : disqualification_rule_id
offers ||--|| rules : targeting_rule_id
page_info_screens ||--|| content_entries : content_entrie_id
page_info_screens ||--|| pages : page_id
page_progresses ||--|| pages : page_id
page_progresses ||--|| users : user_id
page_questions ||--|| content_entries : content_entrie_id
page_questions ||--|| pages : page_id
page_questions ||--|| questions : question_id
pages ||--|| offers : offer_id
pages ||--|| rules : page_targeting_rule_id
points_deltas ||--|| points_ledger_entries : ledger_entry_id
points_ledger_entries ||--|| points_ledgers : ledger_id
points_ledger_entries ||--|| points_rules : rule_id
points_ledger_entries_limits ||--|| points_ledger_entries : ledger_entry_id
points_ledger_entries_limits ||--|| points_limits : limit_id
points_ledgers ||--|| users : user_id
points_rule_limits ||--|| points_limits : limit_id
points_rule_limits ||--|| points_rules : rule_id
predicates ||--|| rules : rule_id
predicates ||--|| tags : tag_id
questions ||--|| tags : targeting_tag_id
responses ||--|| answer_choices : answer_choice_id
responses ||--|| offers : offer_id
responses ||--|| page_progresses : page_progress_id
responses ||--|| page_questions : page_question_id
responses ||--|| users : user_id
rule_path_predicates ||--|| predicates : predicate_id
rule_path_predicates ||--|| rules : rule_id
rules ||--|| rules : parent_id
screens ||--|| content_entries : content_entrie_id
screens ||--|| offers : offer_id
screens ||--|| settings_containers : settings_container_id
services ||--|| clients : client_id
services ||--|| providers : provider_id
vouchers ||--|| users : user_id
